<svg width="146" height="49" viewBox="0 0 146 49" fill="none" xmlns="http://www.w3.org/2000/svg">
<rect width="146" height="48.0664" rx="8" fill="#333333"></rect>
<g clip-path="url(#clip0_11187_18900)">
<path d="M54.5328 29.6851H51.9995L50.6118 25.4335H45.7883L44.4664 29.6851H42L46.7789 15.2109H49.7305L54.5328 29.6851ZM50.1935 23.6498L48.9385 19.8703C48.8058 19.4842 48.557 18.575 48.19 17.1437H48.1454C47.9992 17.7592 47.7639 18.6685 47.4404 19.8703L46.2077 23.6498H50.1935V23.6498Z" fill="white"></path>
<path d="M66.8221 24.3395C66.8221 26.1145 66.3302 27.5176 65.3463 28.5475C64.4651 29.4644 63.3707 29.9223 62.0645 29.9223C60.6545 29.9223 59.6416 29.4285 59.0247 28.441H58.9801V33.9389H56.6018V22.6852C56.6018 21.5693 56.5717 20.4241 56.5137 19.2494H58.6053L58.738 20.9037H58.7826C59.5758 19.6573 60.7794 19.0352 62.3947 19.0352C63.6574 19.0352 64.7116 19.5213 65.5549 20.4948C66.4005 21.4693 66.8221 22.7505 66.8221 24.3395ZM64.3992 24.4243C64.3992 23.4085 64.165 22.571 63.6942 21.9119C63.18 21.2245 62.4895 20.8809 61.6238 20.8809C61.0371 20.8809 60.5039 21.0723 60.0275 21.4497C59.5501 21.8304 59.2378 22.3274 59.0916 22.943C59.018 23.2301 58.9812 23.4651 58.9812 23.65V25.3902C58.9812 26.1493 59.2199 26.7899 59.6974 27.3131C60.1748 27.8362 60.795 28.0973 61.558 28.0973C62.4538 28.0973 63.151 27.7601 63.6496 27.0879C64.1494 26.4147 64.3992 25.5272 64.3992 24.4243Z" fill="white"></path>
<path d="M79.1335 24.3395C79.1335 26.1145 78.6416 27.5176 77.6566 28.5475C76.7764 29.4644 75.6821 29.9223 74.3759 29.9223C72.9658 29.9223 71.953 29.4285 71.3372 28.441H71.2926V33.9389H68.9143V22.6852C68.9143 21.5693 68.8842 20.4241 68.8262 19.2494H70.9178L71.0505 20.9037H71.0951C71.8871 19.6573 73.0908 19.0352 74.7072 19.0352C75.9688 19.0352 77.023 19.5213 77.8685 20.4948C78.7108 21.4693 79.1335 22.7505 79.1335 24.3395ZM76.7106 24.4243C76.7106 23.4085 76.4753 22.571 76.0045 21.9119C75.4903 21.2245 74.802 20.8809 73.9352 20.8809C73.3474 20.8809 72.8153 21.0723 72.3378 21.4497C71.8604 21.8304 71.5491 22.3274 71.403 22.943C71.3305 23.2301 71.2926 23.4651 71.2926 23.65V25.3902C71.2926 26.1493 71.5313 26.7899 72.0065 27.3131C72.4839 27.8351 73.1042 28.0973 73.8694 28.0973C74.7652 28.0973 75.4624 27.7601 75.961 27.0879C76.4608 26.4147 76.7106 25.5272 76.7106 24.4243Z" fill="white"></path>
<path d="M92.9011 25.6272C92.9011 26.8584 92.4627 27.8601 91.5826 28.6334C90.6154 29.4785 89.269 29.9005 87.5388 29.9005C85.9414 29.9005 84.6608 29.6003 83.6914 28.9988L84.2425 27.0661C85.2866 27.6817 86.4322 27.9906 87.6805 27.9906C88.5762 27.9906 89.2734 27.7927 89.7743 27.3989C90.2729 27.0052 90.5217 26.4766 90.5217 25.8175C90.5217 25.2302 90.3164 24.7353 89.9048 24.334C89.4954 23.9327 88.8116 23.5596 87.8567 23.2148C85.2576 22.2697 83.9591 20.8852 83.9591 19.0645C83.9591 17.8746 84.4143 16.899 85.3256 16.1398C86.2337 15.3796 87.4451 15 88.96 15C90.3109 15 91.4331 15.2295 92.3288 15.6874L91.7343 17.5777C90.8976 17.1339 89.9517 16.912 88.8931 16.912C88.0564 16.912 87.4027 17.1133 86.9342 17.5135C86.5382 17.8713 86.3396 18.3075 86.3396 18.8241C86.3396 19.3962 86.5661 19.8693 87.0212 20.2413C87.4172 20.585 88.1367 20.9569 89.1809 21.3583C90.4581 21.8597 91.3963 22.4459 91.9998 23.118C92.601 23.788 92.9011 24.6266 92.9011 25.6272Z" fill="white"></path>
<path d="M100.763 20.9892H98.1417V26.0564C98.1417 27.3452 98.6036 27.9891 99.5294 27.9891C99.9545 27.9891 100.307 27.9532 100.586 27.8814L100.652 29.6423C100.183 29.8131 99.5663 29.899 98.8021 29.899C97.8629 29.899 97.1289 29.6195 96.599 29.0615C96.0714 28.5025 95.8059 27.5649 95.8059 26.2478V20.987H94.2441V19.2468H95.8059V17.3358L98.1417 16.6484V19.2468H100.763V20.9892Z" fill="white"></path>
<path d="M112.59 24.3828C112.59 25.987 112.119 27.3042 111.18 28.3341C110.195 29.3946 108.888 29.9232 107.258 29.9232C105.687 29.9232 104.437 29.4152 103.504 28.3994C102.572 27.3836 102.105 26.1012 102.105 24.5557C102.105 22.9384 102.585 21.6137 103.548 20.5837C104.508 19.5526 105.805 19.0371 107.434 19.0371C109.005 19.0371 110.269 19.545 111.223 20.562C112.135 21.5484 112.59 22.8221 112.59 24.3828ZM110.123 24.4578C110.123 23.4953 109.912 22.6698 109.485 21.9813C108.986 21.1482 108.273 20.7327 107.349 20.7327C106.394 20.7327 105.667 21.1493 105.169 21.9813C104.741 22.6709 104.531 23.5094 104.531 24.5013C104.531 25.4639 104.741 26.2894 105.169 26.9768C105.683 27.8099 106.401 28.2254 107.328 28.2254C108.236 28.2254 108.949 27.8012 109.463 26.955C109.902 26.2535 110.123 25.4193 110.123 24.4578Z" fill="white"></path>
<path d="M120.321 21.2887C120.085 21.2463 119.834 21.2245 119.571 21.2245C118.735 21.2245 118.088 21.5323 117.632 22.149C117.236 22.6928 117.038 23.3802 117.038 24.2101V29.6863H114.661L114.683 22.5362C114.683 21.3333 114.653 20.2381 114.594 19.2505H116.665L116.752 21.2474H116.818C117.069 20.5611 117.465 20.0086 118.007 19.5942C118.537 19.2211 119.109 19.0352 119.726 19.0352C119.946 19.0352 120.145 19.0504 120.321 19.0776V21.2887Z" fill="white"></path>
<path d="M130.958 23.9741C130.958 24.3896 130.931 24.7398 130.871 25.0258H123.737C123.764 26.0569 124.109 26.8454 124.772 27.3893C125.373 27.8754 126.151 28.1191 127.105 28.1191C128.162 28.1191 129.126 27.9548 129.992 27.6253L130.365 29.235C129.352 29.6657 128.156 29.8799 126.776 29.8799C125.116 29.8799 123.814 29.4035 122.865 28.4519C121.919 27.5002 121.445 26.2222 121.445 24.6191C121.445 23.0453 121.886 21.7347 122.768 20.6895C123.692 19.5736 124.94 19.0156 126.511 19.0156C128.054 19.0156 129.222 19.5736 130.015 20.6895C130.643 21.5759 130.958 22.6722 130.958 23.9741ZM128.691 23.3727C128.706 22.6853 128.551 22.0914 128.229 21.59C127.817 20.9451 127.185 20.6231 126.333 20.6231C125.556 20.6231 124.923 20.9375 124.44 21.5683C124.044 22.0697 123.809 22.6711 123.737 23.3716H128.691V23.3727Z" fill="white"></path>
<path d="M29.7909 24.7513C29.7628 21.7077 32.3469 20.227 32.4651 20.158C31.0016 18.0777 28.7333 17.7934 27.9361 17.7707C26.031 17.5753 24.183 18.8822 23.2125 18.8822C22.2227 18.8822 20.7282 17.7896 19.1175 17.8217C17.0448 17.8529 15.1057 19.0229 14.0423 20.8398C11.8475 24.5445 13.4844 29.9886 15.5871 32.9831C16.6389 34.4497 17.868 36.0871 19.4768 36.0295C21.0507 35.9663 21.6386 35.0512 23.5379 35.0512C25.4198 35.0512 25.9719 36.0295 27.6126 35.9927C29.3018 35.9663 30.3653 34.5195 31.3803 33.0398C32.5958 31.3588 33.084 29.7034 33.1034 29.6184C33.0637 29.6052 29.8229 28.3993 29.7909 24.7513Z" fill="white"></path>
<path d="M26.6916 15.8009C27.5381 14.7687 28.1173 13.3645 27.9565 11.9395C26.7313 11.9923 25.199 12.7657 24.3167 13.7752C23.536 14.6648 22.8387 16.1229 23.0188 17.4941C24.3951 17.5942 25.8082 16.817 26.6916 15.8009Z" fill="white"></path>
</g>
<defs>
<clipPath id="clip0_11187_18900">
<rect width="122" height="24.0664" fill="white" transform="translate(12 12)"></rect>
</clipPath>
</defs>
</svg>
