<svg width="40" height="40" viewBox="0 0 40 40" fill="none" xmlns="http://www.w3.org/2000/svg">
<rect width="40" height="40" rx="8" fill="#EEE8FC"/>
<path d="M25.4786 20.6585C25.4553 18.1379 27.5954 16.9116 27.6932 16.8545C26.4812 15.1316 24.6027 14.8962 23.9425 14.8775C22.3648 14.7156 20.8343 15.7979 20.0306 15.7979C19.2108 15.7979 17.9732 14.8931 16.6392 14.9197C14.9227 14.9455 13.3169 15.9145 12.4362 17.4192C10.6186 20.4872 11.9741 24.9958 13.7155 27.4757C14.5866 28.6903 15.6045 30.0464 16.9368 29.9987C18.2403 29.9463 18.7272 29.1884 20.3001 29.1884C21.8586 29.1884 22.3158 29.9987 23.6746 29.9682C25.0735 29.9463 25.9542 28.7481 26.7948 27.5226C27.8015 26.1306 28.2058 24.7596 28.2218 24.6892C28.1889 24.6783 25.505 23.6796 25.4786 20.6585Z" fill="#5A5A5A"/>
<path d="M22.9118 13.2461C23.6128 12.3913 24.0925 11.2284 23.9594 10.0482C22.9447 10.092 21.6757 10.7325 20.945 11.5685C20.2985 12.3053 19.721 13.5128 19.8702 14.6483C21.01 14.7312 22.1803 14.0876 22.9118 13.2461Z" fill="#5A5A5A"/>
</svg>
