<svg width="20" height="20" viewBox="0 0 20 20" fill="none" xmlns="http://www.w3.org/2000/svg">
<path fill-rule="evenodd" clip-rule="evenodd" d="M14.8657 14.5791C15.4456 14.5791 15.9155 15.0465 15.9155 15.623C15.9152 16.1993 15.4454 16.666 14.8657 16.666H5.13225C4.55266 16.6658 4.08271 16.1992 4.08245 15.623C4.08245 15.0466 4.5525 14.5792 5.13225 14.5791H14.8657ZM9.29925 3.70701C9.63258 3.2083 10.3741 3.20838 10.7074 3.70701H10.6996L13.058 7.24217C13.333 7.65805 13.8998 7.74133 14.2914 7.43357L16.1244 5.9697C16.7494 5.4709 17.6571 6.0445 17.4741 6.82615L16.0746 12.7158C15.9829 13.0983 15.641 13.3642 15.2494 13.3642H4.74944C4.35787 13.3642 4.01601 13.0983 3.92425 12.7158L2.52386 6.82615C2.341 6.04453 3.24957 5.47074 3.87444 5.9697L5.70745 7.43357C6.09078 7.74133 6.66585 7.65805 6.94085 7.24217L9.29925 3.70701ZM9.50042 8.84568C9.13243 8.8459 8.8344 9.14464 8.8344 9.51267V10.5039C8.8344 10.8719 9.13243 11.1707 9.50042 11.1709H10.4926C10.8607 11.1708 11.1596 10.872 11.1596 10.5039V9.51267C11.1596 9.14455 10.8607 8.84575 10.4926 8.84568H9.50042Z" fill="#F0C835"/>
</svg>
