<svg width="24" height="24" viewBox="0 0 24 24" fill="none" xmlns="http://www.w3.org/2000/svg">
<path d="M0 12C0 5.37258 5.37258 0 12 0C18.6274 0 24 5.37258 24 12C24 18.6274 18.6274 24 12 24C5.37258 24 0 18.6274 0 12Z" fill="#6933FA"/>
<path d="M8.66264 18C8.3091 18 8.00646 17.8742 7.75473 17.6226C7.50299 17.371 7.37713 17.0686 7.37713 16.7152V7.69469H7.19935C7.04824 7.69469 6.9216 7.64358 6.81944 7.54135C6.71716 7.43913 6.66602 7.31251 6.66602 7.16148C6.66602 7.01033 6.71716 6.88377 6.81944 6.78178C6.9216 6.67968 7.04824 6.62862 7.19935 6.62862H9.86602C9.86602 6.45462 9.92735 6.30632 10.05 6.18372C10.1726 6.06124 10.3209 6 10.495 6H13.5037C13.6778 6 13.8261 6.06124 13.9487 6.18372C14.0713 6.30632 14.1327 6.45462 14.1327 6.62862H16.7993C16.9505 6.62862 17.0771 6.67974 17.1793 6.78196C17.2815 6.88418 17.3327 7.01081 17.3327 7.16184C17.3327 7.31298 17.2815 7.43955 17.1793 7.54153C17.0771 7.64364 16.9505 7.69469 16.7993 7.69469H16.6216V16.7152C16.6216 17.0686 16.4957 17.371 16.244 17.6226C15.9922 17.8742 15.6896 18 15.3361 18H8.66264ZM10.6868 15.5125C10.8379 15.5125 10.9646 15.4615 11.0667 15.3594C11.1688 15.2571 11.2198 15.1305 11.2198 14.9795V9.64915C11.2198 9.49812 11.1687 9.37149 11.0664 9.26927C10.9642 9.16717 10.8375 9.11611 10.6863 9.11611C10.5352 9.11611 10.4085 9.16717 10.3064 9.26927C10.2043 9.37149 10.1533 9.49812 10.1533 9.64915V14.9795C10.1533 15.1305 10.2044 15.2571 10.3065 15.3594C10.4088 15.4615 10.5356 15.5125 10.6868 15.5125ZM13.3124 15.5125C13.4635 15.5125 13.5902 15.4615 13.6923 15.3594C13.7944 15.2571 13.8454 15.1305 13.8454 14.9795V9.64915C13.8454 9.49812 13.7943 9.37149 13.6921 9.26927C13.5899 9.16717 13.4631 9.11611 13.3119 9.11611C13.1608 9.11611 13.0341 9.16717 12.932 9.26927C12.8299 9.37149 12.7789 9.49812 12.7789 9.64915V14.9795C12.7789 15.1305 12.83 15.2571 12.9323 15.3594C13.0345 15.4615 13.1612 15.5125 13.3124 15.5125Z" fill="white"/>
</svg>
