<svg width="100%" height="100%" viewBox="0 0 138 41" fill="none" xmlns="http://www.w3.org/2000/svg">
<rect y="0.431152" width="100%" height="100%" rx="8" fill="#333333"></rect>
<g clip-path="url(#clip0_2127_9873)">
<path d="M127.79 18.549L125.535 24.2919H125.467L123.114 18.549H120.987L124.513 26.577L122.498 31.0421H124.565L130 18.549H127.79ZM111.854 13.7834H109.885V27.028H111.854V13.7834ZM104.442 13.7834H99.7068V27.028H101.691V22.0144H104.45C105.006 22.0334 105.56 21.9417 106.081 21.7447C106.601 21.5477 107.078 21.2493 107.482 20.8668C107.886 20.4842 108.21 20.0252 108.436 19.5164C108.661 19.0075 108.783 18.459 108.795 17.9026C108.783 17.3452 108.661 16.7957 108.435 16.2859C108.209 15.7761 107.885 15.3162 107.48 14.933C107.075 14.5498 106.598 14.2508 106.076 14.0534C105.555 13.856 105 13.7644 104.442 13.7834ZM104.495 20.1648H101.691V15.6549H104.502C105.101 15.6549 105.674 15.8925 106.097 16.3154C106.52 16.7383 106.758 17.3119 106.758 17.91C106.758 18.5081 106.52 19.0816 106.097 19.5046C105.674 19.9275 105.101 20.1651 104.502 20.1651L104.495 20.1648ZM116.71 18.2631C115.989 18.2215 115.271 18.3914 114.645 18.7519C114.018 19.1124 113.511 19.6478 113.184 20.2925L114.943 21.0443C115.118 20.7255 115.381 20.4646 115.702 20.2936C116.022 20.1227 116.386 20.0492 116.748 20.0821C116.996 20.0573 117.247 20.0818 117.486 20.1542C117.725 20.2266 117.947 20.3455 118.14 20.5041C118.332 20.6626 118.492 20.8577 118.609 21.0781C118.726 21.2986 118.799 21.54 118.822 21.7885V21.9238C118.192 21.5831 117.487 21.4048 116.77 21.4051C114.883 21.4051 112.959 22.4426 112.959 24.4119C112.959 26.186 114.5 27.3285 116.244 27.3285C116.74 27.3599 117.236 27.2562 117.678 27.0286C118.12 26.8009 118.492 26.4578 118.755 26.0356H118.83V27.0578H120.754V21.9617C120.754 19.6089 118.995 18.301 116.725 18.301L116.71 18.2631ZM116.477 25.5245C115.831 25.5245 114.928 25.1937 114.928 24.3969C114.928 23.3747 116.048 22.9839 117.026 22.9839C117.656 22.9668 118.279 23.12 118.83 23.4271C118.757 24.002 118.479 24.5312 118.046 24.9168C117.614 25.3024 117.056 25.5183 116.477 25.5245ZM45.2014 27.3135C41.3088 27.3264 38.1295 24.2073 38.0677 20.3152C38.1297 16.4231 41.3088 13.304 45.2014 13.3169C46.0927 13.3019 46.978 13.4651 47.8054 13.7969C48.6328 14.1287 49.3856 14.6223 50.0197 15.2488L48.6591 16.5944C47.7363 15.6902 46.4934 15.1876 45.2014 15.1962C42.3909 15.1962 40.1124 17.4746 40.1124 20.2852C40.1124 23.0957 42.3909 25.3741 45.2014 25.3741C45.8582 25.401 46.5134 25.2898 47.1246 25.0476C47.7357 24.8055 48.2893 24.4377 48.7494 23.9683C49.3611 23.3087 49.7296 22.4603 49.7943 21.5631H45.2014V19.7066H51.666C51.7365 20.101 51.7692 20.501 51.7637 20.9018C51.8287 22.5659 51.2313 24.1878 50.1024 25.412C49.465 26.0557 48.6991 26.5577 47.8546 26.8853C47.0102 27.213 46.1061 27.3589 45.2014 27.3135ZM61.7612 22.8033C61.7861 23.4047 61.6891 24.0049 61.4761 24.5679C61.2631 25.1308 60.9385 25.6449 60.5218 26.0792C60.1051 26.5135 59.6049 26.8591 59.0512 27.0952C58.4975 27.3312 57.9018 27.4529 57.2999 27.4529C56.698 27.4529 56.1023 27.3312 55.5486 27.0952C54.995 26.8591 54.4947 26.5135 54.078 26.0792C53.6613 25.6449 53.3367 25.1308 53.1237 24.5679C52.9107 24.0049 52.8137 23.4047 52.8386 22.8033C52.8137 22.2019 52.9107 21.6017 53.1237 21.0388C53.3367 20.4758 53.6613 19.9617 54.078 19.5274C54.4947 19.0931 54.995 18.7475 55.5486 18.5114C56.1023 18.2754 56.698 18.1537 57.2999 18.1537C57.9018 18.1537 58.4975 18.2754 59.0512 18.5114C59.6049 18.7475 60.1051 19.0931 60.5218 19.5274C60.9385 19.9617 61.2631 20.4758 61.4761 21.0388C61.6891 21.6017 61.7861 22.2019 61.7612 22.8033ZM59.8069 22.8033C59.8399 22.4542 59.7996 22.102 59.6887 21.7693C59.5777 21.4366 59.3985 21.1308 59.1625 20.8714C58.9265 20.612 58.6389 20.4048 58.3182 20.263C57.9974 20.1212 57.6506 20.0479 57.2999 20.0479C56.9492 20.0479 56.6024 20.1212 56.2817 20.263C55.9609 20.4048 55.6733 20.612 55.4373 20.8714C55.2013 21.1308 55.0221 21.4366 54.9111 21.7693C54.8002 22.102 54.7599 22.4542 54.7929 22.8033C54.7599 23.1524 54.8002 23.5046 54.9111 23.8373C55.0221 24.17 55.2013 24.4758 55.4373 24.7352C55.6733 24.9946 55.9609 25.2018 56.2817 25.3436C56.6024 25.4854 56.9492 25.5587 57.2999 25.5587C57.6506 25.5587 57.9974 25.4854 58.3182 25.3436C58.6389 25.2018 58.9265 24.9946 59.1625 24.7352C59.3985 24.4758 59.5777 24.17 59.6887 23.8373C59.7996 23.5046 59.8399 23.1524 59.8069 22.8033ZM71.7588 22.8033C71.7588 25.2652 69.763 27.2608 67.3013 27.2608C64.8396 27.2608 62.8435 25.2652 62.8435 22.8033C62.8435 20.3414 64.8394 18.3458 67.3013 18.3458C69.7632 18.3458 71.7588 20.3414 71.7588 22.8033ZM69.812 22.8033C69.8451 22.4542 69.8048 22.102 69.6939 21.7693C69.5829 21.4366 69.4037 21.1308 69.1677 20.8714C68.9317 20.612 68.6441 20.4048 68.3234 20.263C68.0026 20.1212 67.6558 20.0479 67.3051 20.0479C66.9544 20.0479 66.6076 20.1212 66.2868 20.263C65.9661 20.4048 65.6785 20.612 65.4425 20.8714C65.2065 21.1308 65.0273 21.4366 64.9163 21.7693C64.8054 22.102 64.7651 22.4542 64.7981 22.8033C64.7649 23.1525 64.805 23.5048 64.9159 23.8377C65.0268 24.1705 65.2059 24.4765 65.442 24.736C65.678 24.9955 65.9656 25.2029 66.2864 25.3448C66.6073 25.4867 66.9542 25.5599 67.305 25.5599C67.6558 25.5599 68.0027 25.4867 68.3235 25.3448C68.6443 25.2029 68.932 24.9955 69.168 24.736C69.404 24.4765 69.5832 24.1705 69.6941 23.8377C69.8049 23.5048 69.8453 23.1525 69.812 22.8033ZM81.5155 18.5714V26.667C81.5155 29.9894 79.5385 31.3576 77.2083 31.3576C76.3541 31.3648 75.517 31.1187 74.8026 30.6505C74.0881 30.1822 73.5285 29.5128 73.1942 28.7267L74.9005 27.975C75.0774 28.434 75.3856 28.8307 75.7867 29.1155C76.1878 29.4003 76.664 29.5606 77.1556 29.5762C78.6592 29.5762 79.5761 28.6517 79.5761 26.9301V26.2836H79.501C79.2062 26.6126 78.8443 26.8747 78.4398 27.0524C78.0353 27.23 77.5974 27.319 77.1556 27.3135C74.6646 27.3135 72.6455 25.2943 72.6455 22.8033C72.6455 20.3123 74.6646 18.2931 77.1556 18.2931C77.6003 18.2835 78.0419 18.3683 78.4514 18.5419C78.8609 18.7156 79.2288 18.974 79.5311 19.3003H79.6061V18.5488H81.5155V18.5714ZM79.7641 22.8259C79.7917 22.4857 79.7507 22.1434 79.6435 21.8194C79.5363 21.4953 79.3651 21.1961 79.14 20.9395C78.9149 20.6829 78.6406 20.4741 78.3333 20.3256C78.026 20.177 77.6919 20.0917 77.351 20.0748C77.0035 20.0863 76.6617 20.167 76.3458 20.3122C76.0298 20.4574 75.7459 20.6641 75.5107 20.9202C75.2756 21.1764 75.0938 21.4769 74.9761 21.8041C74.8584 22.1313 74.8071 22.4787 74.8252 22.8259C74.8092 23.1709 74.8621 23.5155 74.981 23.8397C75.0999 24.1639 75.2823 24.4611 75.5175 24.7138C75.7528 24.9666 76.0362 25.1698 76.351 25.3116C76.6659 25.4534 77.0058 25.5309 77.351 25.5395C77.6899 25.5263 78.0226 25.4449 78.3292 25.3C78.6357 25.1551 78.9099 24.9498 79.1353 24.6965C79.3606 24.4431 79.5325 24.1468 79.6405 23.8253C79.7486 23.5039 79.7906 23.164 79.7641 22.8259ZM84.9958 13.7979V27.0354H83.0114V13.7982L84.9958 13.7979ZM92.8133 24.2919L94.3619 25.3141C93.9484 25.9309 93.3891 26.4362 92.7334 26.7849C92.0778 27.1337 91.3461 27.3152 90.6035 27.3133C90.0128 27.3217 89.4264 27.2101 88.88 26.9854C88.3336 26.7607 87.8385 26.4274 87.4246 26.0058C87.0107 25.5842 86.6866 25.083 86.472 24.5325C86.2574 23.9821 86.1567 23.3938 86.176 22.8033C85.9937 20.7017 87.4175 18.7978 89.4853 18.3784C91.5526 17.9591 93.6056 19.1578 94.2566 21.1646L94.4596 21.6834L88.4461 24.1713C88.6335 24.5925 88.9427 24.9479 89.3339 25.1917C89.725 25.4356 90.1803 25.5567 90.6409 25.5395C91.0791 25.5327 91.5084 25.4146 91.8884 25.1963C92.2684 24.978 92.5867 24.6667 92.8133 24.2916M88.0704 22.6677L92.1145 20.999C91.958 20.6926 91.715 20.4388 91.4157 20.2691C91.1164 20.0994 90.7738 20.0212 90.4305 20.0443C90.1023 20.0587 89.7803 20.1383 89.4832 20.2785C89.1861 20.4188 88.92 20.6168 88.7002 20.861C88.4805 21.1052 88.3117 21.3908 88.2035 21.701C88.0954 22.0112 88.0501 22.3398 88.0704 22.6677Z" fill="white"></path>
<path d="M18.178 19.917L8.09058 30.4857C8.20383 30.8872 8.40737 31.2575 8.68566 31.5682C8.96394 31.879 9.30959 32.122 9.69619 32.2787C10.0828 32.4354 10.5001 32.5016 10.9162 32.4723C11.3323 32.443 11.7362 32.3189 12.097 32.1096L23.4476 25.645L18.178 19.917Z" fill="#EA4335"></path>
<path d="M28.3786 18.1203L23.47 15.3091L17.9449 20.1576L23.4924 25.6298L28.3636 22.8485C28.7951 22.6226 29.1566 22.2829 29.4088 21.8661C29.661 21.4494 29.7943 20.9715 29.7943 20.4844C29.7943 19.9973 29.661 19.5195 29.4088 19.1028C29.1566 18.686 28.7951 18.3463 28.3636 18.1203H28.3786Z" fill="#FBBC04"></path>
<path d="M8.09033 10.4307C8.02954 10.6562 7.99916 10.8888 8.00002 11.1224V29.7944C8.00073 30.0279 8.03099 30.2602 8.09033 30.4858L18.5237 20.188L8.09033 10.4307Z" fill="#4285F4"></path>
<path d="M18.2533 20.4582L23.47 15.3091L12.1342 8.81479C11.7077 8.56496 11.2226 8.43259 10.7283 8.43116C10.1316 8.43001 9.55079 8.62405 9.07455 8.9837C8.59832 9.34335 8.25277 9.84887 8.09058 10.4232L18.2533 20.4582Z" fill="#34A853"></path>
</g>
<defs>
<clipPath id="clip0_2127_9873">
<rect width="122" height="24.0664" fill="white" transform="translate(8 8.43115)"></rect>
</clipPath>
</defs>
</svg>
