<svg width="40" height="40" viewBox="0 0 40 40" fill="none" xmlns="http://www.w3.org/2000/svg">
<rect width="40" height="40" rx="8" fill="#EEE8FC"/>
<path d="M19.297 19.5758L10.8875 28.3866C10.9819 28.7213 11.1516 29.03 11.3836 29.2891C11.6155 29.5481 11.9037 29.7507 12.226 29.8814C12.5483 30.012 12.8962 30.0672 13.2431 30.0428C13.59 30.0183 13.9267 29.9149 14.2275 29.7404L23.6901 24.3511L19.297 19.5758Z" fill="#EA4335"/>
<path d="M27.8017 18.0784L23.7096 15.7347L19.1035 19.7768L23.7282 24.3388L27.7892 22.0202C28.149 21.8318 28.4503 21.5486 28.6606 21.2011C28.8708 20.8537 28.982 20.4554 28.982 20.0493C28.982 19.6432 28.8708 19.2448 28.6606 18.8974C28.4503 18.55 28.149 18.2667 27.7892 18.0784H27.8017Z" fill="#FBBC04"/>
<path d="M10.8878 11.6674C10.8371 11.8554 10.8118 12.0493 10.8125 12.244V27.8103C10.8131 28.0049 10.8383 28.1986 10.8878 28.3867L19.5858 19.8018L10.8878 11.6674Z" fill="#4285F4"/>
<path d="M19.3598 20.0265L23.7088 15.734L14.2585 10.3198C13.9029 10.1115 13.4985 10.0012 13.0865 10C12.589 9.99905 12.1048 10.1608 11.7078 10.4606C11.3107 10.7605 11.0227 11.1819 10.8875 11.6607L19.3598 20.0265Z" fill="#34A853"/>
</svg>
