<svg width="14" height="14" viewBox="0 0 14 14" fill="none" xmlns="http://www.w3.org/2000/svg">
<path d="M5.6707 8.17281L4.04053 6.54246C3.94333 6.44538 3.82117 6.39567 3.67404 6.39333C3.52702 6.39111 3.40263 6.44082 3.30088 6.54246C3.19924 6.64421 3.14842 6.76749 3.14842 6.91228C3.14842 7.05708 3.19924 7.18035 3.30088 7.28211L5.22667 9.20789C5.35357 9.33468 5.50158 9.39807 5.6707 9.39807C5.83982 9.39807 5.98784 9.33468 6.11474 9.20789L10.0189 5.30368C10.116 5.20649 10.1657 5.08433 10.1681 4.93719C10.1703 4.79018 10.1206 4.66579 10.0189 4.56404C9.91719 4.4624 9.79392 4.41158 9.64912 4.41158C9.50433 4.41158 9.38105 4.4624 9.2793 4.56404L5.6707 8.17281ZM6.66789 13.3333C5.74579 13.3333 4.87906 13.1584 4.06772 12.8084C3.25637 12.4585 2.55064 11.9836 1.95053 11.3837C1.35041 10.7838 0.875263 10.0784 0.525088 9.26737C0.175029 8.45637 0 7.58988 0 6.66789C0 5.74579 0.174971 4.87906 0.524912 4.06772C0.874854 3.25637 1.34977 2.55064 1.94965 1.95053C2.54953 1.35041 3.25497 0.875263 4.06597 0.525088C4.87696 0.175029 5.74345 0 6.66544 0C7.58754 0 8.45427 0.17497 9.26561 0.524912C10.077 0.874854 10.7827 1.34977 11.3828 1.94965C11.9829 2.54953 12.4581 3.25497 12.8082 4.06597C13.1583 4.87696 13.3333 5.74345 13.3333 6.66544C13.3333 7.58754 13.1584 8.45427 12.8084 9.26561C12.4585 10.077 11.9836 10.7827 11.3837 11.3828C10.7838 11.9829 10.0784 12.4581 9.26737 12.8082C8.45637 13.1583 7.58988 13.3333 6.66789 13.3333Z" fill="#1FAD23"/>
</svg>
