<svg width="12" height="12" viewBox="0 0 12 12" fill="none" xmlns="http://www.w3.org/2000/svg">
<path d="M6.76667 2.80667L7.40667 3.04667C8.12667 3.31333 8.68 3.86667 8.93333 4.55333L9.18 5.22667C9.22667 5.36667 9.43333 5.36667 9.48 5.22667L9.72667 4.55333C9.98 3.86667 10.5333 3.31333 11.2533 3.04667L11.8933 2.80667C12.0267 2.76 12.0267 2.57333 11.8933 2.52667L11.2533 2.28667C10.5333 2.02 9.98 1.46667 9.72667 0.78L9.48 0.106667C9.43333 -0.0333333 9.22667 -0.0333333 9.18 0.106667L8.93333 0.78C8.68 1.46667 8.12667 2.02 7.40667 2.28667L6.76667 2.52667C6.63333 2.57333 6.63333 2.76 6.76667 2.80667Z" fill="black" fill-opacity="0.65"/>
<path d="M11.3333 5.33333C10.9667 5.33333 10.6667 5.63333 10.6667 6V10.6667H1.33333V1.33333H6C6.36667 1.33333 6.66667 1.03333 6.66667 0.666667C6.66667 0.3 6.36667 0 6 0H1.26C0.566667 0 0 0.566667 0 1.26V10.74C0 11.4333 0.566667 12 1.26 12H10.74C11.4333 12 12 11.4333 12 10.74V6C12 5.63333 11.7 5.33333 11.3333 5.33333Z" fill="black" fill-opacity="0.65"/>
<path d="M7.6 6.62667C7.54 6.54667 7.46 6.50667 7.36 6.50667C7.26 6.50667 7.18 6.54667 7.12 6.62667L5.54667 8.72667L4.42667 7.23333C4.36667 7.15333 4.28667 7.11333 4.18667 7.11333C4.08667 7.11333 4.00667 7.15333 3.94667 7.23333L2.74 8.85333C2.66 8.95333 2.64667 9.06 2.70667 9.17333C2.76667 9.28667 2.86 9.34 2.98 9.34H9.02667C9.14667 9.34 9.24 9.28667 9.3 9.17333C9.36 9.06 9.35333 8.96 9.26667 8.85333L7.60667 6.63333L7.6 6.62667Z" fill="black" fill-opacity="0.65"/>
</svg>
