<svg width="92" height="51" viewBox="0 0 92 51" fill="none" xmlns="http://www.w3.org/2000/svg">
<path d="M5.28116 27.0167L16 26.2002V37.4185L5.28116 27.0167Z" fill="#D14918"/>
<path d="M0 8.5C0 4.08172 3.58172 0.5 8 0.5H84C88.4183 0.5 92 4.08172 92 8.5V20.5C92 24.9183 88.4183 28.5 84 28.5H8C3.58172 28.5 0 24.9183 0 20.5V8.5Z" fill="#FF7340"/>
<path d="M8.95881 9.77273H10.5568L13.3352 16.5568H13.4375L16.2159 9.77273H17.8139V18.5H16.5611V12.1847H16.4801L13.9062 18.4872H12.8665L10.2926 12.1804H10.2116V18.5H8.95881V9.77273ZM22.3832 18.6321C21.7695 18.6321 21.234 18.4915 20.7766 18.2102C20.3192 17.929 19.9641 17.5355 19.7113 17.0298C19.4585 16.5241 19.332 15.9332 19.332 15.2571C19.332 14.5781 19.4585 13.9844 19.7113 13.4759C19.9641 12.9673 20.3192 12.5724 20.7766 12.2912C21.234 12.0099 21.7695 11.8693 22.3832 11.8693C22.9968 11.8693 23.5323 12.0099 23.9897 12.2912C24.4471 12.5724 24.8022 12.9673 25.055 13.4759C25.3079 13.9844 25.4343 14.5781 25.4343 15.2571C25.4343 15.9332 25.3079 16.5241 25.055 17.0298C24.8022 17.5355 24.4471 17.929 23.9897 18.2102C23.5323 18.4915 22.9968 18.6321 22.3832 18.6321ZM22.3874 17.5625C22.7852 17.5625 23.1147 17.4574 23.3761 17.2472C23.6374 17.0369 23.8306 16.7571 23.9556 16.4077C24.0835 16.0582 24.1474 15.6733 24.1474 15.2528C24.1474 14.8352 24.0835 14.4517 23.9556 14.1023C23.8306 13.75 23.6374 13.4673 23.3761 13.2543C23.1147 13.0412 22.7852 12.9347 22.3874 12.9347C21.9869 12.9347 21.6545 13.0412 21.3903 13.2543C21.1289 13.4673 20.9343 13.75 20.8065 14.1023C20.6815 14.4517 20.619 14.8352 20.619 15.2528C20.619 15.6733 20.6815 16.0582 20.8065 16.4077C20.9343 16.7571 21.1289 17.0369 21.3903 17.2472C21.6545 17.4574 21.9869 17.5625 22.3874 17.5625ZM31.7614 13.5526L30.6065 13.7571C30.5582 13.6094 30.4815 13.4687 30.3764 13.3352C30.2741 13.2017 30.1349 13.0923 29.9588 13.0071C29.7827 12.9219 29.5625 12.8793 29.2983 12.8793C28.9375 12.8793 28.6364 12.9602 28.3949 13.1222C28.1534 13.2812 28.0327 13.4872 28.0327 13.7401C28.0327 13.9588 28.1136 14.1349 28.2756 14.2685C28.4375 14.402 28.6989 14.5114 29.0597 14.5966L30.0994 14.8352C30.7017 14.9744 31.1506 15.1889 31.446 15.4787C31.7415 15.7685 31.8892 16.1449 31.8892 16.608C31.8892 17 31.7756 17.3494 31.5483 17.6562C31.3239 17.9602 31.0099 18.1989 30.6065 18.3722C30.206 18.5455 29.7415 18.6321 29.2131 18.6321C28.4801 18.6321 27.8821 18.4759 27.419 18.1634C26.956 17.848 26.6719 17.4006 26.5668 16.821L27.7983 16.6335C27.875 16.9545 28.0327 17.1974 28.2713 17.3622C28.5099 17.5241 28.821 17.6051 29.2045 17.6051C29.6222 17.6051 29.956 17.5185 30.206 17.3452C30.456 17.169 30.581 16.9545 30.581 16.7017C30.581 16.4972 30.5043 16.3253 30.3509 16.1861C30.2003 16.0469 29.9688 15.9418 29.6562 15.8707L28.5483 15.6278C27.9375 15.4886 27.4858 15.267 27.1932 14.9631C26.9034 14.6591 26.7585 14.2741 26.7585 13.8082C26.7585 13.4219 26.8665 13.0838 27.0824 12.794C27.2983 12.5043 27.5966 12.2784 27.9773 12.1165C28.358 11.9517 28.794 11.8693 29.2855 11.8693C29.9929 11.8693 30.5497 12.0227 30.956 12.3295C31.3622 12.6335 31.6307 13.0412 31.7614 13.5526ZM36.3455 11.9545V12.9773H32.7702V11.9545H36.3455ZM33.729 10.3864H35.0032V16.5781C35.0032 16.8253 35.0401 17.0114 35.114 17.1364C35.1879 17.2585 35.283 17.3423 35.3995 17.3878C35.5188 17.4304 35.6481 17.4517 35.7873 17.4517C35.8896 17.4517 35.979 17.4446 36.0558 17.4304C36.1325 17.4162 36.1921 17.4048 36.2347 17.3963L36.4648 18.4489C36.391 18.4773 36.2859 18.5057 36.1495 18.5341C36.0131 18.5653 35.8427 18.5824 35.6381 18.5852C35.3029 18.5909 34.9904 18.5312 34.7006 18.4062C34.4109 18.2812 34.1765 18.0881 33.9975 17.8267C33.8185 17.5653 33.729 17.2372 33.729 16.8423V10.3864ZM40.9308 20.9545V11.9545H42.1751V13.0156H42.2816C42.3555 12.8793 42.462 12.7216 42.6012 12.5426C42.7404 12.3636 42.9336 12.2074 43.1808 12.0739C43.4279 11.9375 43.7546 11.8693 44.1609 11.8693C44.6893 11.8693 45.1609 12.0028 45.5756 12.2699C45.9904 12.5369 46.3157 12.9219 46.5515 13.4247C46.7901 13.9276 46.9094 14.5327 46.9094 15.2401C46.9094 15.9474 46.7915 16.554 46.5558 17.0597C46.32 17.5625 45.9961 17.9503 45.5842 18.223C45.1722 18.4929 44.7021 18.6278 44.1737 18.6278C43.7759 18.6278 43.4506 18.5611 43.1978 18.4276C42.9478 18.294 42.7518 18.1378 42.6097 17.9588C42.4677 17.7798 42.3583 17.6207 42.2816 17.4815H42.2049V20.9545H40.9308ZM42.1793 15.2273C42.1793 15.6875 42.2461 16.0909 42.3796 16.4375C42.5131 16.7841 42.7063 17.0554 42.9592 17.2514C43.212 17.4446 43.5217 17.5412 43.8881 17.5412C44.2688 17.5412 44.587 17.4403 44.8427 17.2386C45.0984 17.0341 45.2915 16.7571 45.4222 16.4077C45.5558 16.0582 45.6225 15.6648 45.6225 15.2273C45.6225 14.7955 45.5572 14.4077 45.4265 14.0639C45.2987 13.7202 45.1055 13.4489 44.8469 13.25C44.5913 13.0511 44.2717 12.9517 43.8881 12.9517C43.5188 12.9517 43.2063 13.0469 42.9506 13.2372C42.6978 13.4276 42.506 13.6932 42.3754 14.0341C42.2447 14.375 42.1793 14.7727 42.1793 15.2273ZM51.0941 18.6321C50.4805 18.6321 49.945 18.4915 49.4876 18.2102C49.0302 17.929 48.6751 17.5355 48.4222 17.0298C48.1694 16.5241 48.043 15.9332 48.043 15.2571C48.043 14.5781 48.1694 13.9844 48.4222 13.4759C48.6751 12.9673 49.0302 12.5724 49.4876 12.2912C49.945 12.0099 50.4805 11.8693 51.0941 11.8693C51.7077 11.8693 52.2433 12.0099 52.7006 12.2912C53.158 12.5724 53.5131 12.9673 53.766 13.4759C54.0188 13.9844 54.1452 14.5781 54.1452 15.2571C54.1452 15.9332 54.0188 16.5241 53.766 17.0298C53.5131 17.5355 53.158 17.929 52.7006 18.2102C52.2433 18.4915 51.7077 18.6321 51.0941 18.6321ZM51.0984 17.5625C51.4961 17.5625 51.8256 17.4574 52.087 17.2472C52.3484 17.0369 52.5415 16.7571 52.6665 16.4077C52.7944 16.0582 52.8583 15.6733 52.8583 15.2528C52.8583 14.8352 52.7944 14.4517 52.6665 14.1023C52.5415 13.75 52.3484 13.4673 52.087 13.2543C51.8256 13.0412 51.4961 12.9347 51.0984 12.9347C50.6978 12.9347 50.3654 13.0412 50.1012 13.2543C49.8398 13.4673 49.6452 13.75 49.5174 14.1023C49.3924 14.4517 49.3299 14.8352 49.3299 15.2528C49.3299 15.6733 49.3924 16.0582 49.5174 16.4077C49.6452 16.7571 49.8398 17.0369 50.1012 17.2472C50.3654 17.4574 50.6978 17.5625 51.0984 17.5625ZM55.5675 20.9545V11.9545H56.8118V13.0156H56.9183C56.9922 12.8793 57.0987 12.7216 57.2379 12.5426C57.3771 12.3636 57.5703 12.2074 57.8175 12.0739C58.0646 11.9375 58.3913 11.8693 58.7976 11.8693C59.326 11.8693 59.7976 12.0028 60.2124 12.2699C60.6271 12.5369 60.9524 12.9219 61.1882 13.4247C61.4268 13.9276 61.5462 14.5327 61.5462 15.2401C61.5462 15.9474 61.4283 16.554 61.1925 17.0597C60.9567 17.5625 60.6328 17.9503 60.2209 18.223C59.8089 18.4929 59.3388 18.6278 58.8104 18.6278C58.4126 18.6278 58.0874 18.5611 57.8345 18.4276C57.5845 18.294 57.3885 18.1378 57.2464 17.9588C57.1044 17.7798 56.995 17.6207 56.9183 17.4815H56.8416V20.9545H55.5675ZM56.8161 15.2273C56.8161 15.6875 56.8828 16.0909 57.0163 16.4375C57.1499 16.7841 57.343 17.0554 57.5959 17.2514C57.8487 17.4446 58.1584 17.5412 58.5249 17.5412C58.9055 17.5412 59.2237 17.4403 59.4794 17.2386C59.7351 17.0341 59.9283 16.7571 60.0589 16.4077C60.1925 16.0582 60.2592 15.6648 60.2592 15.2273C60.2592 14.7955 60.1939 14.4077 60.0632 14.0639C59.9354 13.7202 59.7422 13.4489 59.4837 13.25C59.228 13.0511 58.9084 12.9517 58.5249 12.9517C58.1555 12.9517 57.843 13.0469 57.5874 13.2372C57.3345 13.4276 57.1428 13.6932 57.0121 14.0341C56.8814 14.375 56.8161 14.7727 56.8161 15.2273ZM67.12 15.7855V11.9545H68.3984V18.5H67.1456V17.3665H67.0774C66.9268 17.7159 66.6854 18.0071 66.353 18.2401C66.0234 18.4702 65.6129 18.5852 65.1214 18.5852C64.701 18.5852 64.3288 18.4929 64.005 18.3082C63.6839 18.1207 63.4311 17.8438 63.2464 17.4773C63.0646 17.1108 62.9737 16.6577 62.9737 16.1179V11.9545H64.2479V15.9645C64.2479 16.4105 64.3714 16.7656 64.6186 17.0298C64.8658 17.294 65.1868 17.4261 65.5817 17.4261C65.8203 17.4261 66.0575 17.3665 66.2933 17.2472C66.532 17.1278 66.7294 16.9474 66.8857 16.706C67.0447 16.4645 67.1229 16.1577 67.12 15.7855ZM71.3846 9.77273V18.5H70.1104V9.77273H71.3846ZM75.0036 18.6449C74.5888 18.6449 74.2138 18.5682 73.8786 18.4148C73.5433 18.2585 73.2777 18.0327 73.0817 17.7372C72.8885 17.4418 72.7919 17.0795 72.7919 16.6506C72.7919 16.2812 72.8629 15.9773 73.005 15.7386C73.147 15.5 73.3388 15.3111 73.5803 15.1719C73.8217 15.0327 74.0916 14.9276 74.3899 14.8565C74.6882 14.7855 74.9922 14.7315 75.3018 14.6946C75.6939 14.6491 76.0121 14.6122 76.2564 14.5838C76.5007 14.5526 76.6783 14.5028 76.7891 14.4347C76.8999 14.3665 76.9553 14.2557 76.9553 14.1023V14.0724C76.9553 13.7003 76.8501 13.4119 76.6399 13.2074C76.4325 13.0028 76.1229 12.9006 75.7109 12.9006C75.282 12.9006 74.9439 12.9957 74.6967 13.1861C74.4524 13.3736 74.2834 13.5824 74.1896 13.8125L72.9922 13.5398C73.1342 13.142 73.3416 12.821 73.6143 12.5767C73.8899 12.3295 74.2067 12.1506 74.5646 12.0398C74.9226 11.9261 75.299 11.8693 75.6939 11.8693C75.9553 11.8693 76.2322 11.9006 76.5249 11.9631C76.8203 12.0227 77.0959 12.1335 77.3516 12.2955C77.6101 12.4574 77.8217 12.6889 77.9865 12.9901C78.1513 13.2884 78.2337 13.6761 78.2337 14.1534V18.5H76.9893V17.6051H76.9382C76.8558 17.7699 76.7322 17.9318 76.5675 18.0909C76.4027 18.25 76.1911 18.3821 75.9325 18.4872C75.674 18.5923 75.3643 18.6449 75.0036 18.6449ZM75.2805 17.6222C75.6328 17.6222 75.9339 17.5526 76.1839 17.4134C76.4368 17.2741 76.6286 17.0923 76.7592 16.8679C76.8928 16.6406 76.9595 16.3977 76.9595 16.1392V15.2955C76.9141 15.3409 76.826 15.3835 76.6953 15.4233C76.5675 15.4602 76.4212 15.4929 76.2564 15.5213C76.0916 15.5469 75.9311 15.571 75.7749 15.5938C75.6186 15.6136 75.4879 15.6307 75.3828 15.6449C75.1357 15.6761 74.9098 15.7287 74.7053 15.8026C74.5036 15.8764 74.3416 15.983 74.2195 16.1222C74.1001 16.2585 74.0405 16.4403 74.0405 16.6676C74.0405 16.983 74.157 17.2216 74.3899 17.3835C74.6229 17.5426 74.9197 17.6222 75.2805 17.6222ZM79.9308 18.5V11.9545H81.1623V12.9943H81.2305C81.3498 12.642 81.56 12.3651 81.8612 12.1634C82.1651 11.9588 82.5089 11.8565 82.8924 11.8565C82.9719 11.8565 83.0657 11.8594 83.1737 11.8651C83.2844 11.8707 83.3711 11.8778 83.4336 11.8864V13.1051C83.3825 13.0909 83.2915 13.0753 83.1609 13.0582C83.0302 13.0384 82.8995 13.0284 82.7688 13.0284C82.4677 13.0284 82.1992 13.0923 81.9634 13.2202C81.7305 13.3452 81.5458 13.5199 81.4094 13.7443C81.2731 13.9659 81.2049 14.2187 81.2049 14.5028V18.5H79.9308Z" fill="white"/>
</svg>
