<svg width="14" height="12" viewBox="0 0 14 12" fill="none" xmlns="http://www.w3.org/2000/svg">
<path d="M1.99771 11.3342C1.63095 11.3342 1.31699 11.2036 1.05582 10.9424C0.794648 10.6813 0.664062 10.3673 0.664062 10.0005V6.66643C0.664062 6.4775 0.727966 6.31913 0.855774 6.19132C0.983581 6.06352 1.14195 5.99961 1.33088 5.99961C1.51982 5.99961 1.67819 6.06352 1.80599 6.19132C1.9338 6.31913 1.99771 6.4775 1.99771 6.66643V10.0005H9.99957V1.99868H6.66546C6.47653 1.99868 6.31816 1.93478 6.19035 1.80697C6.06254 1.67916 5.99864 1.52079 5.99864 1.33186C5.99864 1.14293 6.06254 0.984558 6.19035 0.85675C6.31816 0.728943 6.47653 0.665039 6.66546 0.665039H9.99957C10.3663 0.665039 10.6803 0.795625 10.9415 1.0568C11.2026 1.31797 11.3332 1.63193 11.3332 1.99868V4.99938L13.4337 2.89889C13.5448 2.78776 13.6671 2.75997 13.8005 2.81554C13.9338 2.87111 14.0005 2.97669 14.0005 3.13228V8.86695C14.0005 9.02254 13.9338 9.12812 13.8005 9.18369C13.6671 9.23925 13.5448 9.21147 13.4337 9.10033L11.3332 6.99985V10.0005C11.3332 10.3673 11.2026 10.6813 10.9415 10.9424C10.6803 11.2036 10.3663 11.3342 9.99957 11.3342H1.99771ZM3.9815 6.91649L3.06462 8.13344C2.97571 8.24458 2.9646 8.36127 3.03128 8.48352C3.09796 8.60577 3.19799 8.6669 3.33135 8.6669H8.66592C8.79929 8.6669 8.89931 8.60577 8.96599 8.48352C9.03268 8.36127 9.02156 8.24458 8.93265 8.13344L7.34895 6.01628C7.28227 5.92737 7.19336 5.88292 7.08222 5.88292C6.97109 5.88292 6.88218 5.92737 6.81549 6.01628L5.33181 8.00008L4.51496 6.91649C4.44828 6.82758 4.35937 6.78313 4.24823 6.78313C4.13709 6.78313 4.04818 6.82758 3.9815 6.91649Z" fill="#5A5A5A"/>
<path d="M0.100023 2.80565L0.740172 3.04571C1.46034 3.31244 2.0138 3.8659 2.26719 4.55273L2.51392 5.22622C2.5606 5.36625 2.76731 5.36625 2.81399 5.22622L3.06071 4.55273C3.3141 3.8659 3.86757 3.31244 4.58773 3.04571L5.22788 2.80565C5.36125 2.75897 5.36125 2.57226 5.22788 2.52559L4.58773 2.28553C3.86757 2.0188 3.3141 1.46534 3.06071 0.778514L2.81399 0.105024C2.76731 -0.0350081 2.5606 -0.0350081 2.51392 0.105024L2.26719 0.778514C2.0138 1.46534 1.46034 2.0188 0.740172 2.28553L0.100023 2.52559C-0.0333411 2.57226 -0.0333411 2.75897 0.100023 2.80565Z" fill="#5A5A5A"/>
</svg>
